# xmcd
#
# Track frame offsets: 
#        150
#        18340
#        36695
#
# Disc length: 714 seconds
#
# Revision: 2
# Processed by: cddbd v1.5.2PL0 Copyright (c) Steve Scherf et al.
# Submitted via: ExactAudioCopy v0.90b4
#
DISCID=2102c803
DTITLE=Shania Twain - That Don't Impress Me Much (Single) [CD1]
DYEAR=1999
DGENRE=Pop
TTITLE0=That Don't Impress Me Much (Dance Mix Edit)
TTITLE1=From This Moment On (Tempo Mix)
TTITLE2=From This Moment On (Dance Mix)
EXTD=
EXTT0=
EXTT1=
EXTT2=
PLAYORDER=
